<svg width="44" height="44" viewBox="0 0 44 44" fill="none" xmlns="http://www.w3.org/2000/svg">
<path d="M23.0134 12.9203L28.9134 15.5403C30.6134 16.2903 30.6134 17.5303 28.9134 18.2803L23.0134 20.9003C22.3434 21.2003 21.2434 21.2003 20.5734 20.9003L14.6734 18.2803C12.9734 17.5303 12.9734 16.2903 14.6734 15.5403L20.5734 12.9203C21.2434 12.6203 22.3434 12.6203 23.0134 12.9203Z" stroke="#FFDC00" stroke-width="1.5" stroke-linecap="round" stroke-linejoin="round"/>
<path d="M13 21C13 21.84 13.63 22.81 14.4 23.15L21.19 26.17C21.71 26.4 22.3 26.4 22.81 26.17L29.6 23.15C30.37 22.81 31 21.84 31 21" stroke="#FFDC00" stroke-width="1.5" stroke-linecap="round" stroke-linejoin="round"/>
<path d="M13 26C13 26.93 13.55 27.77 14.4 28.15L21.19 31.17C21.71 31.4 22.3 31.4 22.81 31.17L29.6 28.15C30.45 27.77 31 26.93 31 26" stroke="#FFDC00" stroke-width="1.5" stroke-linecap="round" stroke-linejoin="round"/>
<rect x="0.75" y="0.75" width="42.5" height="42.5" rx="4.25" stroke="#FFDC00" stroke-width="1.5"/>
</svg>
