<svg width="146" height="31" viewBox="0 0 146 31" fill="none" xmlns="http://www.w3.org/2000/svg">
<g clip-path="url(#clip0_5869_92067)">
<path d="M42.3505 18.5318C42.3505 18.98 42.3505 19.4781 42.374 19.8245C42.4723 21.1671 42.889 21.4659 44.9768 21.3663V24.1532C44.1177 24.3026 43.3079 24.3763 42.374 24.3763C39.1089 24.3763 38.1281 23.3563 37.9806 21.3165C37.9315 20.5456 37.9315 19.9241 37.9315 19.1771V13.6293H35.8438V10.8424H37.9315V7.41016H42.3505V10.8424H45.2481V13.6293H42.3505V18.5296V18.5318Z" fill="#5304BF"/>
<path d="M59.4816 18.5001H50.3486C50.5687 20.7132 51.526 21.3368 52.7782 21.3368C54.0305 21.3368 54.7912 20.6894 54.9621 19.6695H59.3064C58.5457 22.6794 56.0904 24.3706 52.727 24.3706C48.9703 24.3706 45.9766 22.1077 45.9766 17.4304C45.9766 13.55 48.6028 10.3906 52.9727 10.3906C57.3426 10.3906 59.5521 13.773 59.5521 17.2074C59.5521 17.6058 59.5286 18.0541 59.4795 18.5001H59.4816ZM50.4961 15.763H54.9386C54.6929 14.1953 53.9322 13.4244 52.7547 13.4244C51.5773 13.4244 50.7909 14.1217 50.4961 15.763Z" fill="#5304BF"/>
<path d="M65.7997 19.2501C65.7997 19.8716 65.7997 20.1466 65.8489 20.4692C65.9215 20.9911 66.1438 21.1665 67.2977 21.1167V24.1526C66.4878 24.2262 65.7014 24.2761 64.7206 24.2761C62.682 24.2761 61.5303 23.4554 61.432 21.6884C61.3828 20.9911 61.3828 20.3198 61.3828 19.3259V5.74219H65.8019V19.2501H65.7997Z" fill="#5304BF"/>
<path d="M82.2673 16.5158V24.0276H77.8482V17.2607C77.8482 16.8384 77.8482 16.1152 77.7991 15.4439C77.7008 14.1749 77.0127 13.4279 75.6878 13.4279C74.363 13.4279 73.38 14.7466 73.38 17.7565V24.0254H68.9609V10.7449H73.38V12.8107L74.5574 11.1693C75.3673 10.6713 76.3011 10.3984 77.5042 10.3984C80.2052 10.3984 81.7993 11.6912 82.1433 14.006C82.2416 14.6773 82.2651 15.4482 82.2651 16.5179L82.2673 16.5158Z" fill="#5304BF"/>
<path d="M97.5363 18.5001H88.4033C88.6234 20.7132 89.5807 21.3368 90.8329 21.3368C92.0851 21.3368 92.8459 20.6894 93.0168 19.6695H97.3611C96.6004 22.6794 94.1451 24.3706 90.7816 24.3706C87.025 24.3706 84.0312 22.1077 84.0312 17.4304C84.0312 13.55 86.6575 10.3906 91.0274 10.3906C95.3973 10.3906 97.6068 13.773 97.6068 17.2074C97.6068 17.6058 97.5812 18.0541 97.5342 18.5001H97.5363ZM88.5507 15.763H92.9933C92.7476 14.1953 91.9868 13.4244 90.8094 13.4244C89.632 13.4244 88.8456 14.1217 88.5507 15.763Z" fill="#5304BF"/>
<path d="M104.825 18.5279C104.825 18.9761 104.825 19.4742 104.851 19.8206C104.949 21.1632 105.366 21.462 107.453 21.3624V24.1493C106.594 24.2987 105.784 24.3723 104.851 24.3723C101.585 24.3723 100.602 23.3524 100.457 21.3126C100.408 20.5417 100.408 19.9202 100.408 19.1732V13.6253H98.3203V10.8384H100.408V7.40625H104.827V10.8384H107.725V13.6253H104.827V18.5257L104.825 18.5279Z" fill="#5304BF"/>
<path d="M113.846 7.53299C113.846 8.87556 112.937 9.72224 111.563 9.72224C110.189 9.72224 109.281 8.87556 109.281 7.53299C109.281 6.19043 110.189 5.34375 111.563 5.34375C112.937 5.34375 113.846 6.19043 113.846 7.53299ZM109.354 24.027V10.7422H113.773V24.027H109.354Z" fill="#5304BF"/>
<path d="M129.72 16.5158V24.0276H125.301V17.2607C125.301 16.8384 125.301 16.1152 125.252 15.4439C125.154 14.1749 124.466 13.4279 123.141 13.4279C121.816 13.4279 120.833 14.7466 120.833 17.7565V24.0254H116.414V10.7449H120.833V12.8107L122.011 11.1693C122.82 10.6713 123.754 10.3984 124.957 10.3984C127.658 10.3984 129.252 11.6912 129.596 14.006C129.695 14.6773 129.718 15.4482 129.718 16.5179L129.72 16.5158Z" fill="#5304BF"/>
<path d="M145.992 20.6431C145.992 21.4638 145.992 22.4837 145.967 23.2048C145.819 27.5573 142.875 29.4996 138.43 29.4996C134.502 29.4996 132.12 27.8821 131.801 24.8483L131.776 24.5993H136.047L136.071 24.8483C136.169 25.7188 137.176 26.2169 138.55 26.2169C140.195 26.2169 141.398 25.4958 141.52 23.705C141.546 23.3065 141.569 22.6851 141.569 21.964V21.5915L140.586 23.0597C139.849 23.6075 138.819 23.8804 137.492 23.8804C133.932 23.8804 131.477 21.4183 131.477 17.488C131.477 12.7609 134.325 10.3984 137.688 10.3984C138.77 10.3984 140.045 10.6475 140.708 11.0459L141.567 12.4643V10.7471H145.986V20.6474L145.992 20.6431ZM141.573 17.0614V16.9878C141.573 14.3265 140.223 13.43 138.898 13.43C137.18 13.43 136 14.4499 136 17.1611C136 19.6491 137.227 20.8423 138.774 20.8423C140.321 20.8423 141.573 19.8462 141.573 17.0614Z" fill="#5304BF"/>
<path d="M24.6788 30.2683H5.2439C2.36766 30.2683 0.0299163 27.9231 0 25.0085V5.31395C0.0299163 2.39279 2.36125 0.0303159 5.2439 0H24.6788C27.5529 0.0303159 29.8693 2.40146 29.8693 5.31395V25.0085C29.8693 27.9123 27.5465 30.2683 24.6788 30.2683ZM5.2439 1.11952C2.97026 1.14984 1.13254 3.00994 1.10263 5.31611V25.0085C1.13254 27.3038 2.97881 29.1488 5.2439 29.1488H24.6788C26.9353 29.1488 28.7645 27.2952 28.7645 25.0085V5.31395C28.7645 3.0186 26.9439 1.14767 24.6788 1.11736H5.2439V1.11952Z" fill="#5304BF"/>
<path d="M15.3515 0.5625V23.8928C15.3259 24.1288 15.1421 24.315 14.9092 24.341H10.7679C8.86822 24.341 7.31898 22.7971 7.28906 20.872V0.5625H15.3494H15.3515Z" fill="#5304BF"/>
<path d="M20.5943 3.80685C22.7889 3.80685 24.5689 5.61065 24.5689 7.83454C24.5689 10.0584 22.7889 11.8622 20.5943 11.8622H17.0599C16.8163 11.8622 16.6176 11.6608 16.6176 11.414V7.88868C16.5876 5.66479 18.342 3.835 20.5366 3.80469C20.5558 3.80469 20.5729 3.80469 20.5922 3.80469L20.5943 3.80685Z" fill="#5304BF"/>
<path d="M20.5861 16.1115C22.7807 16.1115 24.5607 17.9153 24.5607 20.1392C24.5607 22.3631 22.7807 24.1669 20.5861 24.1669H17.0517C16.8081 24.1669 16.6094 23.9655 16.6094 23.7187V20.1934C16.6094 17.9695 18.3894 16.1657 20.584 16.1657V16.1094L20.5861 16.1115Z" fill="#5304BF"/>
</g>
<defs>
<clipPath id="clip0_5869_92067">
<rect width="146" height="30.2683" fill="white"/>
</clipPath>
</defs>
</svg>
